<?xml version="1.0" encoding="UTF-8"?><svg width="36" height="36" viewBox="0 0 36 36" fill="none" xmlns="http://www.w3.org/2000/svg">
<rect width="36" height="36" rx="10" fill="#7F54D8"/>
<path d="M17.5506 9.98169C17.1322 9.53929 16.923 8.9863 16.923 8.3227C16.923 7.65911 17.1322 7.10611 17.5506 6.66372C17.969 6.22132 18.492 6.00012 19.1196 6.00012C19.7472 6.00012 20.2702 6.22132 20.6886 6.66372C21.107 7.10611 21.3162 7.65911 21.3162 8.3227C21.3162 8.9863 21.107 9.53929 20.6886 9.98169C20.2702 10.4241 19.7472 10.6453 19.1196 10.6453C18.492 10.6453 17.969 10.4241 17.5506 9.98169ZM23.9311 19.272H23.7219C23.5978 19.2492 23.4801 19.1971 23.3777 19.1195C23.2752 19.0419 23.1907 18.9409 23.1304 18.8239C23.07 18.707 23.0355 18.5771 23.0292 18.444C23.023 18.311 23.0452 18.1781 23.0944 18.0554C23.3036 17.06 23.0944 16.507 22.9898 16.3964C22.7806 16.0646 22.153 15.5116 21.5254 14.8481V20.5992C21.5254 21.9264 21.7346 24.1384 21.9438 24.802C22.153 25.355 23.4081 27.014 24.4541 28.2305C24.7679 28.6729 24.7679 29.3365 24.4541 29.6683C24.2449 29.8895 24.0357 30.0001 23.8265 30.0001C23.6173 30.0001 23.3036 30.0001 23.0944 29.6683C22.676 29.2259 20.584 26.7928 20.061 25.4656C19.7472 24.5808 19.538 22.4794 19.538 21.2628H18.9104C18.0736 22.4794 17.1322 24.1384 16.923 24.802C16.6092 25.908 16.5046 27.7881 16.4 28.7835V29.0047C16.4 29.5577 15.9817 30.0001 15.4587 30.0001C14.9357 30.0001 14.5173 29.4471 14.5173 28.8941V28.6729C14.5173 27.4564 14.6219 25.4656 15.0403 24.1384C15.2495 23.3642 16.0863 22.037 16.7138 20.931C16.6092 20.7098 16.5046 20.5992 16.5046 20.378V15.1799C15.8771 15.7328 15.2495 16.2858 14.8311 16.507C14.5173 16.7282 13.8897 16.9494 13.1575 16.9494C12.4253 16.9494 12.2161 16.9494 11.6931 16.7282C11.1701 16.507 10.8563 16.0646 11.0655 15.5116C11.2747 14.9587 11.6931 14.6269 12.2161 14.8481C13.1575 15.1798 13.6805 14.8481 13.7851 14.8481C14.4127 14.5163 15.9817 12.8573 16.8184 11.8619C17.0276 11.6407 17.1322 11.5301 17.446 11.5301H20.1656C20.4794 11.5301 20.8978 11.6407 21.2116 11.9725C21.8392 12.5255 23.8265 14.2951 24.4541 15.2904C24.8725 15.8434 25.1863 16.9494 24.8725 18.6084C24.7679 19.0508 24.3495 19.3826 23.9311 19.3826V19.272Z" fill="white"/>
</svg>
