<svg width="36" height="36" viewBox="0 0 36 36" fill="none" xmlns="http://www.w3.org/2000/svg">
<rect width="36" height="36" rx="10" fill="#D854BB"/>
<path d="M16.1045 24.6232L18.197 26.6833C18.4972 26.979 18.5095 27.4758 18.2092 27.7726C18.062 27.9164 17.8649 27.9979 17.659 28C17.4531 28.002 17.2544 27.9246 17.1043 27.7837L17.0921 27.7726L14.998 25.7103C14.9292 25.6366 14.8759 25.55 14.8411 25.4555C14.8063 25.3609 14.7907 25.2604 14.7953 25.1598C14.7998 25.0592 14.8244 24.9605 14.8676 24.8695C14.9108 24.7785 14.9718 24.6971 15.0469 24.6299L15.0547 24.6221C15.1977 24.4908 15.3848 24.418 15.5791 24.418C15.7733 24.418 15.9604 24.4908 16.1034 24.6221L16.1045 24.6232ZM24.362 24.8189L26.0246 26.4555C26.3249 26.7511 26.3377 27.248 26.0363 27.5436C25.8891 27.6875 25.692 27.7689 25.4861 27.771C25.2802 27.7731 25.0815 27.6956 24.9314 27.5547L24.9203 27.5436L23.2566 25.9081C23.1841 25.8374 23.1264 25.7531 23.0866 25.66C23.0469 25.567 23.0258 25.467 23.0248 25.3658C23.0238 25.2646 23.0427 25.1642 23.0806 25.0704C23.1185 24.9765 23.1745 24.891 23.2454 24.8189C23.3908 24.6735 23.5872 24.5905 23.7928 24.5876C23.9984 24.5847 24.197 24.6621 24.3464 24.8033L24.362 24.8189ZM17.1733 8.08915C17.2834 8.15361 17.3768 8.24475 17.4413 8.35368L20.0019 12.829L25.1221 13.8493C25.493 13.9215 25.7371 14.2772 25.6704 14.6495C25.6488 14.7758 25.5877 14.892 25.4958 14.9813L21.9721 18.762L22.5659 23.8708C22.5758 23.9602 22.568 24.0507 22.5429 24.137C22.5178 24.2234 22.4759 24.304 22.4196 24.3742C22.3633 24.4444 22.2937 24.5028 22.2148 24.5461C22.1359 24.5894 22.0493 24.6168 21.9598 24.6266C21.8325 24.6422 21.7034 24.623 21.5862 24.571L16.8396 22.4298L12.0926 24.5704C11.9815 24.6215 11.8589 24.6423 11.7373 24.6307C11.6156 24.619 11.4991 24.5755 11.3998 24.5044C11.3004 24.4333 11.2216 24.3371 11.1714 24.2258C11.1212 24.1144 11.1013 23.9917 11.1139 23.8702L11.7189 18.7614L8.18291 14.9808C8.12171 14.9156 8.07407 14.839 8.04276 14.7553C8.01145 14.6716 7.99708 14.5825 8.00049 14.4932C8.00391 14.4039 8.02503 14.3162 8.06265 14.2352C8.10026 14.1541 8.15362 14.0813 8.21961 14.021C8.3182 13.9394 8.43366 13.8805 8.55769 13.8487L13.6784 12.8284L16.238 8.35201C16.3276 8.19372 16.4758 8.07694 16.6508 8.02684C16.8257 7.97673 17.0134 7.99732 17.1733 8.08415C17.1688 8.08415 17.1733 8.08415 17.1733 8.08748V8.08859V8.08915ZM25.6904 17.7878L27.7857 19.8467C27.8561 19.9196 27.9114 20.0058 27.9481 20.1003C27.9849 20.1947 28.0024 20.2956 27.9997 20.3969C27.997 20.4982 27.9742 20.5979 27.9324 20.6903C27.8907 20.7827 27.831 20.8658 27.7567 20.9349C27.61 21.0698 27.4179 21.1446 27.2185 21.1446C27.0191 21.1446 26.827 21.0698 26.6802 20.9349L24.5867 18.8742C24.5142 18.8035 24.4565 18.7192 24.4167 18.6261C24.3769 18.5331 24.3559 18.4331 24.3549 18.3319C24.3539 18.2307 24.3728 18.1303 24.4107 18.0365C24.4485 17.9426 24.5046 17.8572 24.5755 17.785C24.7266 17.6424 24.9266 17.563 25.1344 17.563C25.3422 17.563 25.5421 17.6424 25.6932 17.785L25.6904 17.7878Z" fill="white"/>
</svg>
