<svg width="36" height="36" viewBox="0 0 36 36" fill="none" xmlns="http://www.w3.org/2000/svg">
<rect width="36" height="36" rx="10" fill="#D854BB"/>
<path d="M28.0722 19.6018C27.5227 19.4091 26.9502 19.2972 26.3917 19.1307C26.1574 19.0901 25.9366 18.992 25.7488 18.8451C25.3253 18.4061 26.192 18.0919 26.5022 17.9864C26.6973 17.9205 26.8762 17.8417 27.0641 17.7579C27.252 17.6741 29.0157 17.2099 28.3581 16.8059C28.2097 16.7385 28.0538 16.6894 27.8937 16.6596C27.5216 16.5454 27.1404 16.4616 26.7627 16.3615C26.4065 16.267 25.9527 16.3455 25.646 16.101C25.0379 15.6189 25.9436 14.9426 26.316 14.7068C26.5305 14.5713 26.9276 14.3908 26.9294 14.0857C26.9294 13.6288 26.3054 13.743 26.029 13.7217C25.6459 13.6931 25.2614 13.6699 24.8787 13.6379C24.6798 13.636 24.4856 13.5772 24.3186 13.4684C24.1398 13.3161 24.3364 12.9733 24.4018 12.8008C24.6029 12.2762 24.83 11.7621 25.0825 11.2604C25.3801 10.6553 25.6993 10.0609 25.9988 9.45578C26.15 9.15456 26.2942 8.84983 26.4314 8.54183C26.5304 8.3187 26.7664 7.84189 26.4453 7.69908C26.1806 7.58484 25.8978 7.80618 25.6992 7.95613C25.6108 8.02202 25.5257 8.08827 25.4387 8.15606C24.8957 8.57731 24.3743 9.02743 23.8584 9.48146C23.3425 9.93549 22.8374 10.3988 22.3182 10.8524C22.1885 10.9705 22.0465 11.074 21.8946 11.1612C21.6855 11.2755 21.4249 11.3307 21.2726 11.1007C21.1418 10.8404 21.083 10.5494 21.1024 10.2583C21.0937 9.89426 21.1168 9.53019 21.1361 9.16767C21.1835 8.89291 21.1775 8.61148 21.1183 8.33902C20.9694 7.91784 20.5031 8.08387 20.3065 8.34779C20.124 8.64185 19.9667 8.95105 19.8364 9.27203C19.6291 9.70245 19.386 10.1144 19.1097 10.5036C18.8945 10.847 18.5804 11.116 18.2093 11.2747C18.0216 11.3214 17.8245 11.3118 17.6421 11.2471C17.4598 11.1825 17.3002 11.0655 17.183 10.9107C16.896 10.5999 16.6165 10.2826 16.3446 9.95863C15.8874 9.41787 15.4458 8.86265 15.0029 8.30745C14.7832 8.03061 14.5631 7.75408 14.3382 7.47918C14.193 7.30068 13.9571 6.98109 13.6954 7.00088C13.2132 7.03897 13.5502 8.17188 13.5854 8.43082C13.667 9.02181 13.7126 9.61579 13.8371 10.1996C13.9203 10.596 14.0179 10.9867 14.0871 11.3866C14.1298 11.6365 14.1741 12.106 13.954 12.2952C13.656 12.5489 13.2503 12.1578 13.0109 12.0115C12.8547 11.9171 12.7201 11.7903 12.5643 11.6939C11.8996 11.2815 11.8961 11.9761 11.9491 12.4632C11.9808 12.7648 12.0247 13.0077 11.6443 12.9914C11.3296 12.9363 11.0241 12.8372 10.7367 12.697C10.3752 12.572 10.0148 12.4441 9.65558 12.3132C8.95297 12.0603 8.25112 11.8044 7.54209 11.5675C7.43919 11.5373 7.3289 11.5456 7.23159 11.5909C7.13428 11.6361 7.05652 11.7153 7.01267 11.8138C6.89205 12.2118 7.66686 12.9704 7.88657 13.2526C8.56724 14.1254 9.44455 14.8021 10.1396 15.6589C10.4421 16.0336 10.8097 16.6048 10.5827 17.1014C10.3524 17.6102 9.63734 17.8581 9.17337 18.1064C8.89317 18.2564 8.09223 18.6395 8.40574 19.0721C8.48339 19.1501 8.57804 19.2088 8.68217 19.2435C8.82378 19.3048 8.97182 19.3498 9.12347 19.3775C9.63209 19.4757 10.1498 19.5078 10.6637 19.5679C11.0732 19.6163 11.5659 19.8143 11.4827 20.2998C11.3837 20.8851 10.8501 21.4297 10.4705 21.8493C9.89452 22.4849 9.28947 23.0934 8.69617 23.7111C8.48705 23.9289 7.15219 25.044 7.59197 25.3749C7.8491 25.5695 8.46171 25.3071 8.73512 25.2408C9.75954 24.9925 10.7824 24.7321 11.7981 24.4483C12.073 24.3722 12.3476 24.2915 12.6187 24.2074C13.3701 23.9735 14.317 23.7557 14.441 24.809C14.5102 25.3768 14.5031 25.9515 14.5545 26.5193C14.5666 27.241 14.6389 27.9605 14.7708 28.6701C14.792 28.7502 14.8351 28.8228 14.8952 28.8795C14.9552 28.9363 15.0298 28.975 15.1106 28.9913C15.1913 29.0076 15.275 29.0009 15.3521 28.9718C15.4292 28.9428 15.4968 28.8926 15.5471 28.827C15.8219 28.4767 16.0429 28.0868 16.2028 27.6705C16.4369 27.2064 16.6513 26.7352 16.8764 26.2675C17.1282 25.741 17.4118 24.9895 17.9844 24.7413C18.5569 24.4931 18.9486 25.0235 19.2871 25.4036C19.6131 25.7714 19.9092 26.1675 20.2586 26.5174C20.4471 26.7478 20.6701 26.9472 20.9195 27.1084C20.9695 27.1458 21.0301 27.166 21.0924 27.166C21.1546 27.166 21.2152 27.1458 21.2652 27.1084C21.5469 26.8316 21.4603 26.4301 21.5299 26.0802C21.6434 25.5125 21.7568 24.8323 22.1415 24.3792C22.5261 23.926 23.1038 24.14 23.5807 24.2988C24.2737 24.5291 24.9638 24.7682 25.6511 25.0163C26.0375 25.1557 26.4255 25.2931 26.8086 25.4413C27.0638 25.5394 27.335 25.5966 27.594 25.677C27.7377 25.7216 27.8757 25.7825 28.0213 25.8217C28.4236 25.9325 28.9447 25.7985 28.5813 25.3183C28.2584 24.9612 27.9082 24.6301 27.5339 24.3281C27.1368 23.9496 26.7451 23.5623 26.3374 23.1983C25.8117 22.8119 25.3529 22.3408 24.9795 21.8041C24.8588 21.5935 24.6728 21.2973 24.8199 21.0544C24.9757 20.7939 25.4226 20.7776 25.6847 20.7151C26.3578 20.5983 27.0405 20.5473 27.7233 20.5628C28.1068 20.5923 28.4921 20.5375 28.8525 20.4021C29.3927 20.0858 28.2919 19.6807 28.0722 19.6018Z" fill="white" fill-opacity="0.75"/>
<path d="M24.5688 18.6401C23.6698 18.7622 22.5459 19.227 22.9293 20.2518C23.1962 20.9634 23.872 21.4794 24.366 22.0445C24.524 22.2255 24.7854 22.4066 24.7103 22.6659C24.655 22.8568 24.4721 22.8516 24.2958 22.8104C23.6923 22.6285 23.1126 22.3824 22.568 22.0767C21.7944 21.6973 20.9153 21.4261 20.0997 21.8518C19.3045 22.265 18.9343 23.1087 18.4343 23.7765C18.1364 24.1777 17.6702 23.9915 17.538 23.5908C17.317 22.9402 17.3308 22.1723 16.6059 21.8127C15.8157 21.4188 14.8377 21.7709 14.0546 21.9739C13.6479 22.0782 12.9616 22.3391 12.5577 22.1351C12.0708 21.893 12.7444 21.2106 12.9047 21.0322C13.5082 20.4254 13.9945 19.7235 14.3413 18.9582C14.7282 17.9362 13.8728 17.2173 13.1164 16.6325C12.886 16.4539 11.5206 15.4585 12.1769 15.1574C12.5941 14.9665 13.2389 15.1939 13.6611 15.2774C14.2084 15.4292 14.7896 15.4334 15.3392 15.2894C16.4444 14.9054 16.3781 13.6753 16.6035 12.785C16.6588 12.5576 16.6892 12.1761 16.9246 12.0489C17.2147 11.8923 17.4633 12.1417 17.5926 12.3765C17.7584 12.6797 17.844 13.0124 17.9966 13.3157C18.2033 13.8328 18.5804 14.2736 19.0724 14.5731C20.1626 15.1407 21.4556 14.4166 22.38 13.8761C22.6132 13.7388 22.8724 13.4675 23.1441 13.4211C23.4159 13.3747 23.442 13.6752 23.3718 13.8613C23.3015 14.0475 23.2215 14.2234 23.1507 14.4019C22.8839 15.0624 22.5735 15.8499 22.9669 16.5224C23.3286 17.0285 23.8725 17.3934 24.4975 17.5496C24.879 17.6309 25.2552 17.733 25.6242 17.8553C25.7563 17.9117 26.0077 18.064 26 18.2268C25.9911 18.5905 24.8434 18.603 24.5688 18.6401Z" fill="white"/>
</svg>
