<svg width="36" height="36" viewBox="0 0 36 36" fill="none" xmlns="http://www.w3.org/2000/svg">
<rect width="36" height="36" rx="10" fill="#D854BB"/>
<path d="M6.28125 23H4.03906V11.7969H6.28125V23ZM15.3281 16.2969L13.7656 17.8672C13.6875 17.6484 13.5807 17.4531 13.4453 17.2812C13.3099 17.1042 13.1562 16.9557 12.9844 16.8359C12.8177 16.7161 12.6354 16.625 12.4375 16.5625C12.2396 16.5 12.0365 16.4688 11.8281 16.4688C11.5365 16.4688 11.2604 16.5286 11 16.6484C10.7448 16.7682 10.5208 16.9375 10.3281 17.1562C10.1406 17.3698 9.99219 17.625 9.88281 17.9219C9.77344 18.2188 9.71875 18.5469 9.71875 18.9062C9.71875 19.1979 9.77344 19.4714 9.88281 19.7266C9.99219 19.9818 10.1406 20.2057 10.3281 20.3984C10.5208 20.5911 10.7448 20.7422 11 20.8516C11.2604 20.9609 11.5365 21.0156 11.8281 21.0156C12.0365 21.0156 12.237 20.987 12.4297 20.9297C12.6224 20.8724 12.8021 20.7917 12.9688 20.6875C13.1406 20.5781 13.2917 20.4479 13.4219 20.2969C13.5573 20.1406 13.6667 19.9688 13.75 19.7812L15.3125 21.3516C15.1146 21.6328 14.8854 21.8854 14.625 22.1094C14.3698 22.3333 14.0911 22.5234 13.7891 22.6797C13.4922 22.8359 13.1771 22.9531 12.8438 23.0312C12.5156 23.1146 12.1771 23.1562 11.8281 23.1562C11.2396 23.1562 10.6849 23.0469 10.1641 22.8281C9.64844 22.6042 9.19531 22.2995 8.80469 21.9141C8.41927 21.5286 8.11458 21.0781 7.89062 20.5625C7.66667 20.0469 7.55469 19.4948 7.55469 18.9062C7.55469 18.2656 7.66667 17.6667 7.89062 17.1094C8.11458 16.5521 8.41927 16.0677 8.80469 15.6562C9.19531 15.2396 9.64844 14.9115 10.1641 14.6719C10.6849 14.4323 11.2396 14.3125 11.8281 14.3125C12.1771 14.3125 12.5182 14.3568 12.8516 14.4453C13.1901 14.5339 13.5104 14.6641 13.8125 14.8359C14.1198 15.0026 14.401 15.2083 14.6562 15.4531C14.9167 15.6979 15.1406 15.9792 15.3281 16.2969ZM24.3359 18.7422C24.3359 19.3672 24.224 19.9505 24 20.4922C23.776 21.0286 23.4714 21.4948 23.0859 21.8906C22.7005 22.2812 22.2474 22.5911 21.7266 22.8203C21.2109 23.0443 20.6562 23.1562 20.0625 23.1562C19.474 23.1562 18.9193 23.0443 18.3984 22.8203C17.8828 22.5911 17.4297 22.2812 17.0391 21.8906C16.6536 21.4948 16.349 21.0286 16.125 20.4922C15.901 19.9505 15.7891 19.3672 15.7891 18.7422C15.7891 18.1068 15.901 17.5182 16.125 16.9766C16.349 16.4349 16.6536 15.9688 17.0391 15.5781C17.4297 15.1823 17.8828 14.8724 18.3984 14.6484C18.9193 14.4245 19.474 14.3125 20.0625 14.3125C20.6562 14.3125 21.2109 14.4193 21.7266 14.6328C22.2474 14.8411 22.7005 15.1406 23.0859 15.5312C23.4714 15.9167 23.776 16.3828 24 16.9297C24.224 17.4714 24.3359 18.0755 24.3359 18.7422ZM22.1875 18.7422C22.1875 18.3984 22.1302 18.0885 22.0156 17.8125C21.9062 17.5312 21.7552 17.2917 21.5625 17.0938C21.3698 16.8906 21.1432 16.737 20.8828 16.6328C20.6276 16.5234 20.3542 16.4688 20.0625 16.4688C19.7708 16.4688 19.4948 16.5234 19.2344 16.6328C18.9792 16.737 18.7552 16.8906 18.5625 17.0938C18.375 17.2917 18.2266 17.5312 18.1172 17.8125C18.0078 18.0885 17.9531 18.3984 17.9531 18.7422C17.9531 19.0651 18.0078 19.3646 18.1172 19.6406C18.2266 19.9167 18.375 20.1562 18.5625 20.3594C18.7552 20.5625 18.9792 20.724 19.2344 20.8438C19.4948 20.9583 19.7708 21.0156 20.0625 21.0156C20.3542 21.0156 20.6276 20.9609 20.8828 20.8516C21.1432 20.7422 21.3698 20.5885 21.5625 20.3906C21.7552 20.1927 21.9062 19.9531 22.0156 19.6719C22.1302 19.3906 22.1875 19.0807 22.1875 18.7422ZM27.6484 23H25.5156V14.6328H26.0312L26.7344 15.4453C27.0781 15.1328 27.4661 14.8932 27.8984 14.7266C28.3359 14.5547 28.7917 14.4688 29.2656 14.4688C29.776 14.4688 30.2578 14.5677 30.7109 14.7656C31.1641 14.9583 31.5599 15.2266 31.8984 15.5703C32.237 15.9089 32.5026 16.3073 32.6953 16.7656C32.8932 17.2188 32.9922 17.7031 32.9922 18.2188V23H30.8594V18.2188C30.8594 18 30.8177 17.7943 30.7344 17.6016C30.651 17.4036 30.5365 17.2318 30.3906 17.0859C30.2448 16.9401 30.0755 16.8255 29.8828 16.7422C29.6901 16.6589 29.4844 16.6172 29.2656 16.6172C29.0417 16.6172 28.8307 16.6589 28.6328 16.7422C28.4349 16.8255 28.263 16.9401 28.1172 17.0859C27.9714 17.2318 27.8568 17.4036 27.7734 17.6016C27.6901 17.7943 27.6484 18 27.6484 18.2188V23Z" fill="white"/>
</svg>
