<svg width="36" height="36" viewBox="0 0 36 36" fill="none" xmlns="http://www.w3.org/2000/svg">
<rect width="36" height="36" rx="10" fill="#7F54D8"/>
<g clip-path="url(#clip0_429_13726)">
<path d="M26.7383 15.1333L18.0001 20.089L9.26196 15.1333L18.0001 10.1777L26.7383 15.1333Z" fill="white" fill-opacity="0.75"/>
<path d="M18.0001 30.0001L26.7383 25.0445V15.1333L18.0001 20.0889V30.0001Z" fill="white"/>
<path d="M18.0001 30.0001L9.26196 25.0445V15.1333L18.0001 20.0889V30.0001Z" fill="white" fill-opacity="0.5"/>
<path d="M17.3418 9.98613L14.0381 6.68239C13.5952 6.2395 12.8291 6.55072 12.8291 7.18513V9.24399H7.41864C7.02362 9.24399 6.7124 9.55521 6.7124 9.95022V11.0156C6.7124 11.4106 7.02362 11.7218 7.41864 11.7218H12.8291V13.7806C12.8291 14.4151 13.5952 14.7263 14.0381 14.2834L17.3418 10.9796C17.6171 10.7043 17.6171 10.2614 17.3418 9.98613Z" fill="white"/>
<path d="M13.5353 14.9776C13.3797 14.9776 13.224 14.9537 13.0804 14.8819C12.6375 14.7023 12.3502 14.2714 12.3502 13.7926V12.2006H7.41856C6.77217 12.2006 6.23352 11.6739 6.23352 11.0155V9.95019C6.23352 9.30381 6.7602 8.76515 7.41856 8.76515H12.3622V7.1851C12.3622 6.7063 12.6495 6.27538 13.0924 6.09582C13.5353 5.91627 14.038 6.01203 14.3851 6.3472L17.6889 9.65094C18.1557 10.1178 18.1557 10.8599 17.6889 11.3267L14.3732 14.6305C14.1457 14.846 13.8465 14.9776 13.5353 14.9776ZM7.41856 9.72276C7.28689 9.72276 7.19113 9.83049 7.19113 9.95019V11.0155C7.19113 11.1472 7.29886 11.243 7.41856 11.243H13.3078V13.7806C13.3078 13.9243 13.4036 13.9721 13.4515 13.9961C13.4994 14.008 13.6071 14.044 13.7029 13.9482L17.0066 10.6445C17.1024 10.5487 17.1024 10.4051 17.0066 10.3213L13.7029 7.01752C13.6071 6.92176 13.4874 6.9457 13.4515 6.96964C13.4036 6.98161 13.3078 7.04146 13.3078 7.1851V9.72276H7.41856Z" fill="#7F54D8"/>
<path d="M18.6585 9.98613L21.9623 6.68239C22.4051 6.2395 23.1712 6.55072 23.1712 7.18513V9.24399H28.5817C28.9767 9.24399 29.2879 9.55521 29.2879 9.95022V11.0156C29.2879 11.4106 28.9767 11.7218 28.5817 11.7218H23.1712V13.7806C23.1712 14.4151 22.4051 14.7263 21.9623 14.2834L18.6585 10.9796C18.3832 10.7043 18.3832 10.2614 18.6585 9.98613Z" fill="white"/>
<path d="M22.465 14.9777C22.1538 14.9777 21.8545 14.858 21.6271 14.6306L18.3233 11.3268C18.0959 11.0994 17.9762 10.8121 17.9762 10.4889C17.9762 10.1657 18.0959 9.87844 18.3233 9.65101L21.6271 6.34727C21.9622 6.0121 22.4769 5.90437 22.9198 6.0959C23.3627 6.27545 23.65 6.70637 23.65 7.18517V8.77719H28.5937C29.24 8.77719 29.7787 9.30388 29.7787 9.96223V11.0276C29.7787 11.674 29.252 12.2126 28.5937 12.2126H23.65V13.8046C23.65 14.2834 23.3627 14.7144 22.9198 14.8939C22.7642 14.9418 22.6206 14.9777 22.465 14.9777ZM18.9937 10.3213C18.9338 10.3812 18.9218 10.453 18.9218 10.4889C18.9218 10.5248 18.9338 10.5966 18.9937 10.6565L22.2974 13.9602C22.3932 14.056 22.5129 14.0321 22.5488 14.0081C22.5966 13.9961 22.6924 13.9363 22.6924 13.7927V11.243H28.5817C28.7134 11.243 28.8091 11.1353 28.8091 11.0156V9.95026C28.8091 9.81859 28.7014 9.72283 28.5817 9.72283H22.6924V7.18517C22.6924 7.04153 22.5966 6.99365 22.5488 6.96971C22.5009 6.95774 22.3932 6.92183 22.2974 7.01759L18.9937 10.3213Z" fill="#7F54D8"/>
</g>
<defs>
<clipPath id="clip0_429_13726">
<rect width="24" height="24" fill="white" transform="translate(6.00012 6.00012)"/>
</clipPath>
</defs>
</svg>
