<svg width="36" height="36" viewBox="0 0 36 36" fill="none" xmlns="http://www.w3.org/2000/svg">
<rect width="36" height="36" rx="10" fill="#7F54D8"/>
<path d="M25 18C24.3434 17.9999 23.6932 18.1292 23.0865 18.3805C22.4798 18.6317 21.9286 19 21.4643 19.4643C21 19.9286 20.6317 20.4798 20.3805 21.0865C20.1292 21.6932 19.9999 22.3434 20 23C19.9999 23.6566 20.1292 24.3068 20.3805 24.9135C20.6317 25.5202 21 26.0714 21.4643 26.5357C21.9286 27 22.4798 27.3683 23.0865 27.6195C23.6932 27.8708 24.3434 28.0001 25 28C25.6959 28 26.2415 27.4769 26.2564 26.8426C26.2692 26.238 25.6513 25.5626 25.8462 25.4041C26.1421 25.1621 26.6815 25.8113 27.4231 26.0267C28.0231 26.201 28.9374 25.9821 29.2282 25.6692C29.8087 25.0446 30 23.981 30 22.999C30 20.2379 27.7621 18 25 18ZM22.279 23.7718C21.8544 23.7718 21.5097 23.4267 21.5097 23.0026C21.5097 22.5779 21.8544 22.2333 22.279 22.2333C22.483 22.2333 22.6786 22.3144 22.8229 22.4586C22.9672 22.6029 23.0482 22.7986 23.0482 23.0026C23.0482 23.2066 22.9672 23.4022 22.8229 23.5465C22.6786 23.6908 22.483 23.7718 22.279 23.7718ZM23.2431 21.659C22.8185 21.659 22.4738 21.3138 22.4738 20.8897C22.4738 20.4651 22.8185 20.1205 23.2431 20.1205C23.6672 20.1205 24.0123 20.4651 24.0123 20.8897C24.0123 21.3138 23.6672 21.659 23.2431 21.659ZM26.0097 21.659C25.5851 21.659 25.2405 21.3138 25.2405 20.8897C25.2405 20.4651 25.5851 20.1205 26.0097 20.1205C26.4338 20.1205 26.779 20.4651 26.779 20.8897C26.779 21.3138 26.4338 21.659 26.0097 21.659ZM27.678 23.7718C27.2533 23.7718 26.9087 23.4267 26.9087 23.0026C26.9087 22.5779 27.2538 22.2333 27.678 22.2333C28.1021 22.2333 28.4472 22.5779 28.4472 23.0026C28.4472 23.2066 28.3661 23.4022 28.2219 23.5465C28.0776 23.6908 27.882 23.7718 27.678 23.7718Z" fill="white"/>
<path fill-rule="evenodd" clip-rule="evenodd" d="M21.1821 28C19.5655 26.9251 18.5 25.087 18.5 23.0001C18.5 20.239 20.365 17.9135 22.904 17.2146L22.9064 17.2108H19.2576C19.9137 16.2864 20.3511 15.0687 20.3511 13.7158V13.4001C21.767 13.1521 22.6878 12.7575 22.6878 12.363C22.6878 11.9346 21.6634 11.5399 20.0979 11.2919C20.0288 10.9311 18.9699 8.01119 17.7268 8.01119C17.1743 8.01119 16.7367 8.29299 16.449 8.72143C16.449 8.9357 16.2303 9.14977 15.9425 9.14977C15.6893 9.14977 15.4706 8.96936 15.4361 8.75519C15.1827 8.32695 14.7108 8 14.1583 8C12.9497 8 11.8216 10.6831 11.5684 11.3596C10.2217 11.6077 9.34681 11.9684 9.34681 12.3968C9.34681 12.8252 10.2562 13.1859 11.6835 13.434V13.7497C11.6835 15.1025 12.0864 16.3201 12.7771 17.2447H9.12813L10.6936 19.7475C9.531 19.7475 8 21.3146 8 22.6787L8.03458 26.7824C8.03458 27.4589 8.57554 28 9.27776 28H21.1821ZM14.446 26.9966H15.0331L15.6432 21.0664L13.3524 19.1048L14.446 26.9966ZM16.9554 26.9966H17.5425L18.6359 19.0709L16.3338 21.0664L16.9554 26.9966ZM18.9238 14.7869V14.5388L18.8549 14.5389V14.2909H16.6679V14.5389H15.2059V14.2909H13.0189V14.7869H13.3182C13.3526 15.1814 13.606 16.3201 14.4808 16.3201C14.8376 16.3201 15.4938 16.0382 15.6434 14.7869H16.2994C16.2994 14.7869 16.4835 16.3201 17.4734 16.3201C18.4518 16.3201 18.636 14.7869 18.636 14.7869H18.9238Z" fill="white"/>
</svg>
