<svg width="36" height="36" viewBox="0 0 36 36" fill="none" xmlns="http://www.w3.org/2000/svg">
<rect width="36" height="36" rx="10" fill="#7F54D8"/>
<path d="M29.1044 20.7602L24.9963 18.4634L21.0548 20.6658L20.8956 20.7562L24.9963 22.9311L25.0444 22.9075L29.1155 20.768V20.7641L29.1044 20.7602Z" fill="white"/>
<path d="M29.9259 20.3393C29.8632 20.2005 29.7608 20.0863 29.6335 20.0129L25.3108 17.5823C25.2137 17.5283 25.1058 17.5 24.9962 17.5C24.8866 17.5 24.7786 17.5283 24.6816 17.5823L20.3626 19.9971C20.2943 20.0418 20.2341 20.099 20.1849 20.1662C20.1421 20.2123 20.1048 20.2638 20.0739 20.3196C20.0274 20.4173 20.0021 20.5248 19.9999 20.6343V25.3537C20.001 25.4857 20.0361 25.6148 20.1014 25.7271C20.1666 25.8394 20.2595 25.9306 20.37 25.9908L24.689 28.4056C24.7829 28.4625 24.8882 28.4949 24.9962 28.5H25.048C25.1396 28.4951 25.2291 28.4697 25.3108 28.4253L29.6298 26.0105C29.7403 25.9503 29.8332 25.859 29.8984 25.7467C29.9636 25.6345 29.9987 25.5053 29.9999 25.3734V20.6343C29.9962 20.5313 29.9709 20.4305 29.9259 20.3393ZM29.1153 20.768L25.0443 22.9075L24.9962 22.935V27.5247L20.877 25.2239V20.764L21.0361 20.6736L24.9962 18.4633L29.1042 20.7601L29.1153 20.768Z" fill="white"/>
<path fill-rule="evenodd" clip-rule="evenodd" d="M21.6096 28L18.9376 26.5L18.9377 23L18.9376 19.5L21.9898 17.7865L22.8753 17.2609L22.9063 17.2108H19.2574C19.9136 16.2864 20.351 15.0687 20.351 13.7158V13.4001C21.7669 13.1521 22.6876 12.7575 22.6876 12.363C22.6876 11.9346 21.6632 11.5399 20.0978 11.2919C20.0287 10.9311 18.9697 8.01119 17.7267 8.01119C17.1742 8.01119 16.7366 8.29299 16.4489 8.72143C16.4489 8.9357 16.2302 9.14977 15.9424 9.14977C15.6892 9.14977 15.4705 8.96936 15.436 8.75519C15.1826 8.32695 14.7106 8 14.1582 8C12.9495 8 11.8215 10.6831 11.5683 11.3596C10.2216 11.6077 9.34668 11.9684 9.34668 12.3968C9.34668 12.8252 10.256 13.1859 11.6834 13.434V13.7497C11.6834 15.1025 12.0863 16.3201 12.777 17.2447H9.12801L10.6935 19.7475C9.53088 19.7475 7.99988 21.3146 7.99988 22.6787L8.03445 26.7824C8.03445 27.4589 8.57542 28 9.27763 28H21.6096ZM14.4459 26.9966H15.0329L15.6431 21.0664L13.3523 19.1048L14.4459 26.9966ZM16.9553 26.9966H17.5424L18.6358 19.0709L16.3336 21.0664L16.9553 26.9966ZM18.9236 14.7869V14.5388L18.8548 14.5389V14.2909H16.6678V14.5389H15.2058V14.2909H13.0188V14.7869H13.318C13.3525 15.1814 13.6059 16.3201 14.4807 16.3201C14.8375 16.3201 15.4936 16.0382 15.6433 14.7869H16.2993C16.2993 14.7869 16.4834 16.3201 17.4733 16.3201C18.4517 16.3201 18.6359 14.7869 18.6359 14.7869H18.9236Z" fill="white"/>
</svg>
