<?xml version="1.0" encoding="UTF-8"?><svg width="36" height="36" viewBox="0 0 36 36" fill="none" xmlns="http://www.w3.org/2000/svg">
<rect width="36" height="36" rx="10" fill="#606DFF"/>
<ellipse cx="18" cy="24.2501" rx="10" ry="3.75" fill="white" fill-opacity="0.4"/>
<path d="M18 8C16.9494 7.99989 15.9091 8.20674 14.9384 8.60874C13.9678 9.01074 13.0858 9.60002 12.3429 10.3429C11.6 11.0858 11.0107 11.9678 10.6087 12.9384C10.2067 13.9091 9.99989 14.9494 10 16C9.99989 17.0506 10.2067 18.0909 10.6087 19.0616C11.0107 20.0323 11.6 20.9142 12.3429 21.6571C13.0858 22.4 13.9678 22.9893 14.9384 23.3913C15.9091 23.7933 16.9494 24.0001 18 24C19.1134 24 19.9865 23.1631 20.0103 22.1481C20.0308 21.1807 19.0421 20.1001 19.3538 19.8466C19.8273 19.4593 20.6905 20.4981 21.8769 20.8427C22.8369 21.1216 24.2999 20.7713 24.7651 20.2708C25.694 19.2714 26 17.5696 26 15.9984C26 11.5807 22.4193 8 18 8ZM13.6464 17.2349C12.967 17.2349 12.4156 16.6827 12.4156 16.0041C12.4156 15.3247 12.967 14.7733 13.6464 14.7733C13.9728 14.7733 14.2858 14.903 14.5166 15.1338C14.7475 15.3646 14.8771 15.6777 14.8771 16.0041C14.8771 16.3305 14.7475 16.6436 14.5166 16.8744C14.2858 17.1052 13.9728 17.2349 13.6464 17.2349ZM15.1889 13.8544C14.5095 13.8544 13.9582 13.3022 13.9582 12.6236C13.9582 11.9442 14.5095 11.3928 15.1889 11.3928C15.8675 11.3928 16.4197 11.9442 16.4197 12.6236C16.4197 13.3022 15.8675 13.8544 15.1889 13.8544ZM19.6156 13.8544C18.9362 13.8544 18.3848 13.3022 18.3848 12.6236C18.3848 11.9442 18.9362 11.3928 19.6156 11.3928C20.2942 11.3928 20.8464 11.9442 20.8464 12.6236C20.8464 13.3022 20.2942 13.8544 19.6156 13.8544ZM22.2847 17.2349C21.6053 17.2349 21.054 16.6827 21.054 16.0041C21.054 15.3247 21.6062 14.7733 22.2847 14.7733C22.9633 14.7733 23.5155 15.3247 23.5155 16.0041C23.5155 16.3305 23.3858 16.6436 23.155 16.8744C22.9242 17.1052 22.6111 17.2349 22.2847 17.2349Z" fill="white"/>
</svg>
