<svg width="36" height="36" viewBox="0 0 36 36" fill="none" xmlns="http://www.w3.org/2000/svg">
<rect width="36" height="36" rx="10" fill="#606DFF"/>
<ellipse cx="18" cy="24.2501" rx="10" ry="3.75" fill="white" fill-opacity="0.4"/>
<path d="M11.9931 12.0023C11.7155 12.0023 11.4805 11.9035 11.2883 11.706C11.0961 11.5084 11 11.2708 11 10.9931C11 10.7155 11.0961 10.4805 11.2883 10.2883C11.4805 10.0961 11.7155 10 11.9931 10H24.0069C24.2845 10 24.5195 10.0961 24.7117 10.2883C24.9039 10.4805 25 10.7155 25 10.9931C25 11.2708 24.9039 11.5084 24.7117 11.706C24.5195 11.9035 24.2845 12.0023 24.0069 12.0023H11.9931ZM22.0046 14.0046C22.2822 14.0046 22.5172 14.1007 22.7094 14.2929C22.9016 14.4851 22.9977 14.7201 22.9977 14.9977C22.9977 15.2754 22.9016 15.513 22.7094 15.7105C22.5172 15.9081 22.2822 16.0069 22.0046 16.0069H13.9954C13.7178 16.0069 13.4828 15.9081 13.2906 15.7105C13.0984 15.513 13.0023 15.2754 13.0023 14.9977C13.0023 14.7201 13.0984 14.4851 13.2906 14.2929C13.4828 14.1007 13.7178 14.0046 13.9954 14.0046H22.0046ZM24.0069 17.9931C24.2845 17.9931 24.5195 18.0919 24.7117 18.2895C24.9039 18.487 25 18.7246 25 19.0023C25 19.2799 24.9039 19.5149 24.7117 19.7071C24.5195 19.8993 24.2845 19.9954 24.0069 19.9954H11.9931C11.7155 19.9954 11.4805 19.8993 11.2883 19.7071C11.0961 19.5149 11 19.2799 11 19.0023C11 18.7246 11.0961 18.487 11.2883 18.2895C11.4805 18.0919 11.7155 17.9931 11.9931 17.9931H24.0069ZM22.0046 21.9977C22.2822 21.9977 22.5172 22.0965 22.7094 22.2941C22.9016 22.4916 22.9977 22.7292 22.9977 23.0069C22.9977 23.2845 22.9016 23.5195 22.7094 23.7117C22.5172 23.9039 22.2822 24 22.0046 24H13.9954C13.7178 24 13.4828 23.9039 13.2906 23.7117C13.0984 23.5195 13.0023 23.2845 13.0023 23.0069C13.0023 22.7292 13.0984 22.4916 13.2906 22.2941C13.4828 22.0965 13.7178 21.9977 13.9954 21.9977H22.0046Z" fill="white"/>
</svg>
