<svg width="36" height="36" viewBox="0 0 36 36" fill="none" xmlns="http://www.w3.org/2000/svg">
<rect width="36" height="36" rx="10" fill="#606DFF"/>
<ellipse cx="17.9999" cy="24.2501" rx="10" ry="3.75" fill="white" fill-opacity="0.4"/>
<path d="M11.8935 12.6128L11.8715 12.6238V18.8597L17.9864 22.0767V15.6538L11.8935 12.6128Z" fill="#606DFF"/>
<path d="M24.0903 12.6183L17.9864 9.40686L12.1299 12.4863L11.8934 12.6128L17.9864 15.6538L18.0579 15.6208L24.1068 12.6293V12.6238L24.0903 12.6183Z" fill="white"/>
<path d="M25.3111 12.0299C25.2179 11.8359 25.0659 11.6761 24.8767 11.5735L18.4538 8.17508C18.3096 8.09945 18.1492 8.05994 17.9864 8.05994C17.8235 8.05994 17.6631 8.09945 17.5189 8.17508L11.1015 11.5515C11.0001 11.6139 10.9107 11.694 10.8376 11.788C10.774 11.8524 10.7186 11.9244 10.6726 12.0024C10.6035 12.139 10.5659 12.2893 10.5626 12.4423V19.0412C10.5643 19.2257 10.6165 19.4063 10.7134 19.5633C10.8103 19.7203 10.9483 19.8478 11.1125 19.9321L17.5299 23.3085C17.6694 23.3881 17.8259 23.4333 17.9864 23.4405H18.0633C18.1994 23.4337 18.3325 23.3981 18.4538 23.336L24.8712 19.9596C25.0353 19.8753 25.1734 19.7478 25.2703 19.5908C25.3672 19.4338 25.4194 19.2532 25.4211 19.0687V12.4423C25.4156 12.2984 25.378 12.1575 25.3111 12.0299ZM24.1068 12.6293L18.0578 15.6208L17.9864 15.6593V22.0767L11.8659 18.8597V12.6238L12.1024 12.4973L17.9864 9.40687L24.0903 12.6183L24.1068 12.6293Z" fill="white"/>
</svg>
