<svg width="36" height="36" viewBox="0 0 36 36" fill="none" xmlns="http://www.w3.org/2000/svg">
<rect width="36" height="36" rx="10" fill="#7F54D8"/>
<path d="M22.3007 13.4831C22.4076 13.4298 22.5412 13.4831 22.5678 13.5901C22.6212 13.697 22.5678 13.8305 22.4609 13.8572C22.3274 13.9106 22.0869 13.9641 21.8195 13.9908C21.8462 14.2047 21.8462 14.4185 21.8728 14.659C22.835 14.5521 23.7704 14.3918 24.6254 14.1244C24.5988 13.4829 24.5721 12.9217 24.5721 12.4942C23.8773 12.6278 22.8616 12.815 21.7125 12.9486C21.7392 13.1088 21.7659 13.3227 21.7928 13.59C22.0335 13.5634 22.2204 13.5098 22.3007 13.4831ZM10.2472 10.3297C10.8886 10.3297 11.4499 10.7307 11.4499 10.7307L12.8931 10.2496C12.7059 9.20738 12.0646 8.61946 12.0646 8.61946C7.73515 9.63503 8.56358 12.5215 8.56358 12.5215C8.85743 10.7573 9.57893 10.3297 10.2471 10.3297H10.2472ZM22.4609 16.0492C22.354 16.1025 22.1938 16.1561 22.0067 16.1827C22.0067 16.3699 22.0333 16.5837 22.0333 16.7706C22.9686 16.6638 23.8773 16.4766 24.7059 16.2094C24.6792 15.6215 24.6792 15.0603 24.6526 14.5792C23.7973 14.8464 22.862 15.0069 21.9266 15.1138C21.9532 15.3277 21.9532 15.5415 21.9799 15.782C22.1135 15.7553 22.2204 15.7286 22.2739 15.7018C22.3809 15.6484 22.5144 15.7018 22.5681 15.782C22.5945 15.862 22.5678 15.9956 22.4609 16.0492H22.4609ZM21.606 16.7969C21.606 16.6098 21.5793 16.3959 21.5793 16.209C21.3121 16.2357 21.0983 16.2357 20.9914 16.2357C20.8844 16.2357 20.7776 16.1554 20.7776 16.0218C20.7776 15.9149 20.8578 15.808 20.9914 15.808C21.1517 15.808 21.3655 15.7813 21.5527 15.7813C21.526 15.5408 21.526 15.327 21.4993 15.1132C20.7509 15.1665 20.0027 15.1934 19.3079 15.1934C17.5172 15.1934 16.0206 15.0331 15.4058 14.9529V16.6099C16.0737 16.7435 18.8264 17.0642 21.6061 16.7968L21.606 16.7969ZM22.5411 18.1603C22.4341 18.2136 22.2471 18.2673 22.0601 18.2939V18.8016C22.9154 18.6947 23.7971 18.5344 24.7594 18.3206C24.7594 17.7327 24.7327 17.1447 24.7327 16.6101C23.9043 16.8773 22.9687 17.0645 22.06 17.1714C22.06 17.4119 22.0868 17.6257 22.0868 17.8662C22.2204 17.8395 22.3273 17.8129 22.3808 17.7859C22.4878 17.7326 22.6213 17.7859 22.6749 17.8662C22.7014 17.9998 22.648 18.1067 22.5411 18.1603L22.5411 18.1603ZM21.0981 18.4007C20.9912 18.4007 20.8842 18.3205 20.8842 18.1868C20.8842 18.08 20.9645 17.9731 21.0981 17.9731C21.2584 17.9731 21.4722 17.9464 21.6593 17.9464C21.6593 17.7059 21.6593 17.4654 21.6327 17.2516C20.8576 17.3318 20.1094 17.3585 19.3877 17.3585C17.1428 17.3585 15.3521 17.0913 15.1918 17.0644C15.0046 17.1713 14.7908 17.2783 14.5772 17.3585L14.577 18.561C15.8064 18.8015 18.3185 19.2292 21.6322 18.8551V18.3474C21.3919 18.3739 21.1781 18.4008 21.0978 18.4008L21.0981 18.4007ZM27.1381 9.58136C26.8976 8.67268 26.2828 6.96231 25.1872 6.29414L23.0492 6.00012C23.0492 6.00012 24.4924 6.66829 25.2406 9.92876C25.2939 10.1693 25.5077 10.3298 25.7482 10.3298H25.8016L26.6569 10.2228C27.0045 10.196 27.2181 9.9019 27.1381 9.58136ZM13.1337 7.01592C13.5347 7.01592 13.8821 7.2298 14.1226 7.55051C15.0848 8.96709 15.4053 10.4903 15.4855 11.292C15.5122 11.5592 15.7527 11.7464 15.9932 11.7464H16.0735L17.3029 11.5592C17.57 11.5325 17.7838 11.2652 17.7571 10.998C17.5434 8.77962 16.6883 7.36337 16.207 6.69521C16.0199 6.45469 15.7527 6.32106 15.4586 6.32106H15.3517L13.4544 6.53494C13.4544 6.53494 13.401 6.53494 13.2941 6.56163H13.2674C13.0002 6.61496 12.4924 6.77546 12.1985 7.39007C12.1981 7.39007 12.5724 7.01592 13.1336 7.01592H13.1337ZM14.6038 20.7258C14.5235 20.7791 14.3899 20.9129 14.3633 21.287C14.283 21.9552 14.4702 22.169 14.684 22.2759C14.7643 22.3026 15.1917 22.4361 15.8867 22.5699C15.8334 22.2225 15.8065 21.7682 15.8065 21.5811C15.8065 21.3672 15.8867 21.1534 15.9401 20.9931C15.4858 20.9129 15.0581 20.8326 14.6037 20.7258H14.6038ZM15.1115 21.8749C14.9512 21.8749 14.8443 21.7413 14.8443 21.6077C14.8443 21.4741 14.9779 21.3405 15.1115 21.3405C15.2717 21.3405 15.3786 21.4741 15.3786 21.6077C15.3788 21.7413 15.2719 21.8749 15.1115 21.8749ZM19.334 21.6614C19.3073 21.4475 19.3073 21.3674 19.0132 21.3674H18.4521C18.3184 21.3674 18.1046 21.394 18.0779 21.4207C18.0779 21.4207 18.0513 21.4474 18.0779 21.5276C18.1312 21.9819 18.2115 22.6768 18.2115 23.4252V27.4072C18.2382 27.5141 18.3987 28.2625 18.8797 28.3159H18.9063C19.2537 28.3159 19.4409 27.6211 19.4676 27.2736V23.2916C19.4676 23.2916 19.4676 22.6501 19.3607 21.7414C19.334 21.7414 19.334 21.6881 19.334 21.6614ZM18.7459 21.9019C18.9061 21.9019 19.013 22.0355 19.013 22.1691C19.013 22.3294 18.8794 22.4363 18.7459 22.4363C18.6123 22.4363 18.4787 22.3027 18.4787 22.1691C18.4787 22.0088 18.6123 21.9019 18.7459 21.9019ZM18.7995 26.365C18.6392 26.365 18.5323 26.2314 18.5323 26.0978C18.5323 25.9642 18.6658 25.8306 18.7994 25.8306C18.933 25.8306 19.0666 25.9642 19.0666 26.0978C19.0666 26.2314 18.9597 26.365 18.7994 26.365H18.7995ZM18.7995 24.4407C18.6392 24.4407 18.5323 24.3071 18.5323 24.1735C18.5323 24.04 18.6658 23.9064 18.7994 23.9064C18.933 23.9064 19.0666 24.04 19.0666 24.1735C19.0666 24.3071 18.9597 24.4407 18.7994 24.4407H18.7995ZM21.1782 21.5813C21.1782 21.3942 21.1515 21.3408 20.8842 21.3408H20.8308C20.6972 21.3408 20.4032 21.3675 20.2695 21.3675H20.1627C20.0557 21.3675 19.9221 21.3675 19.8955 21.3942V21.4744C19.9488 21.9287 20.0291 22.6235 20.0291 23.372V29.0914C20.0557 29.1983 20.2162 29.9467 20.6972 30.0001H20.7239C21.0713 30.0001 21.2585 29.3053 21.2852 28.9578V23.2383C21.2852 23.2383 21.2852 22.5969 21.1782 21.6882C21.2049 21.6615 21.2049 21.6346 21.1782 21.5813ZM20.3229 22.0089C20.3229 21.8487 20.4565 21.7418 20.5901 21.7418C20.7504 21.7418 20.8573 21.8754 20.8573 22.0089C20.8573 22.1425 20.7237 22.2761 20.5901 22.2761C20.4567 22.2761 20.3229 22.1692 20.3229 22.0089ZM20.6972 28.4496C20.537 28.4496 20.43 28.3161 20.43 28.1825C20.43 28.0222 20.5637 27.9153 20.6972 27.9153C20.8308 27.9153 20.9644 28.0488 20.9644 28.1825C20.9644 28.3161 20.8575 28.4496 20.6972 28.4496ZM20.6972 26.365C20.537 26.365 20.43 26.2314 20.43 26.0978C20.43 25.9642 20.5637 25.8306 20.6972 25.8306C20.8308 25.8306 20.9644 25.9642 20.9644 26.0978C20.9644 26.2314 20.8575 26.3649 20.6972 26.3649V26.365ZM20.6972 24.3338C20.537 24.3338 20.43 24.2002 20.43 24.0666C20.43 23.9331 20.5637 23.7994 20.6972 23.7994C20.8308 23.7994 20.9644 23.9331 20.9644 24.0666C20.9644 24.2002 20.8575 24.3338 20.6972 24.3338ZM23.049 21.4204C23.0223 21.2066 23.0223 21.0997 22.7282 21.0997H22.6749C22.6216 21.0997 22.5146 21.1264 22.4077 21.1264C22.3275 21.1264 22.2205 21.1531 22.1672 21.1531C22.0336 21.1531 21.8198 21.1797 21.7931 21.2064C21.7931 21.2064 21.7664 21.2331 21.7931 21.3133C21.8464 21.7676 21.9267 22.4625 21.9267 23.2109V28.9304C21.9534 29.0373 22.1139 29.7857 22.5949 29.8391H22.6216C22.969 29.8391 23.1561 29.1443 23.1828 28.7968L23.1826 23.0778C23.1826 23.0778 23.1826 22.4364 23.0757 21.5277C23.049 21.501 23.049 21.4743 23.049 21.4208V21.4204ZM22.167 21.8481C22.167 21.6878 22.3006 21.5809 22.4341 21.5809C22.5678 21.5809 22.7014 21.7145 22.7014 21.8481C22.7014 22.0084 22.5678 22.1153 22.4341 22.1153C22.3006 22.1155 22.167 21.9817 22.167 21.8481ZM22.5411 28.2623C22.3808 28.2623 22.2739 28.1287 22.2739 27.9951C22.2739 27.8615 22.4075 27.7279 22.5411 27.7279C22.6747 27.7279 22.8082 27.8615 22.8082 27.9951C22.8082 28.1287 22.7014 28.2623 22.5411 28.2623ZM22.5411 26.2044C22.3808 26.2044 22.2739 26.0709 22.2739 25.9373C22.2739 25.8037 22.4075 25.6701 22.5411 25.6701C22.6747 25.6701 22.8082 25.8037 22.8082 25.9373C22.8082 26.0709 22.7014 26.2044 22.5411 26.2044ZM22.5411 24.1466C22.3808 24.1466 22.2739 24.013 22.2739 23.8795C22.2739 23.7459 22.4075 23.6123 22.5411 23.6123C22.6747 23.6123 22.8082 23.7458 22.8082 23.8795C22.8082 24.0128 22.7014 24.1466 22.5411 24.1466ZM24.6257 21.127C24.599 20.833 24.5724 20.833 24.5188 20.833H24.4386C24.4119 20.833 24.3583 20.8596 24.3316 20.8596C24.2248 20.8863 24.0645 20.9399 23.9307 20.9665C23.6366 21.0199 23.6366 21.0199 23.6635 21.207C23.7169 21.6613 23.7704 22.3295 23.7704 23.051V26.9262C23.7971 27.1667 23.9576 27.7546 24.305 27.8082H24.3316C24.5455 27.8082 24.7327 27.2202 24.7593 26.8193L24.7595 22.8908C24.7595 22.8908 24.7595 22.1158 24.6793 21.2338C24.6526 21.2073 24.6257 21.1804 24.6257 21.1271L24.6257 21.127ZM24.1983 21.4208C24.3319 21.4208 24.4388 21.5544 24.4388 21.688C24.4388 21.8483 24.3319 21.9552 24.1983 21.9552C24.0647 21.9552 23.9578 21.8216 23.9578 21.688C23.9578 21.5546 24.0647 21.4208 24.1983 21.4208ZM24.2516 26.1247C24.118 26.1247 24.0111 25.9911 24.0111 25.8575C24.0111 25.6972 24.118 25.5903 24.2516 25.5903C24.3852 25.5903 24.4921 25.7239 24.4921 25.8575C24.4921 25.9911 24.3852 26.1247 24.2516 26.1247ZM24.2516 24.0133C24.118 24.0133 24.0111 23.8797 24.0111 23.7461C24.0111 23.6125 24.118 23.4789 24.2516 23.4789C24.3852 23.4789 24.4921 23.6125 24.4921 23.7461C24.4921 23.8797 24.3852 24.0133 24.2516 24.0133Z" fill="white"/>
<path d="M14.7638 11.0513L13.7483 11.1849H13.668C13.374 11.1849 13.1334 10.9711 13.0535 10.7039C13.0535 10.6772 13.0535 10.6505 13.0267 10.6237L11.5835 11.1046L11.3697 11.1849L11.2094 11.078C11.2094 11.078 10.7284 10.7572 10.2472 10.7572C9.60575 10.7572 9.2049 11.3718 9.01783 12.6012L8.91089 13.296L10.3808 12.9219V16.5299C10.3808 16.5299 11.3697 17.2784 12.813 17.2784C13.4544 17.2784 14.2026 17.1181 14.9777 16.6904C14.9777 16.6636 15.0846 12.7348 14.7638 11.0513H14.7638Z" fill="white"/>
<path d="M13.4546 10.6501C13.4813 10.7571 13.5616 10.8104 13.6685 10.8104L14.7107 10.6501C14.764 10.6501 14.8177 10.5968 14.871 10.5699C14.871 10.5432 14.8977 10.5432 14.8977 10.5166C14.7105 9.7415 14.39 8.75257 13.7485 7.81725C13.5883 7.60337 13.3475 7.46985 13.1071 7.46985C12.7329 7.46985 12.4656 7.71031 12.4656 7.71031L12.0646 8.11132C12.9734 8.75257 13.3209 9.98197 13.4547 10.6501H13.4546ZM25.8818 10.7574H25.8015C25.8282 11.1048 25.8548 11.4789 25.8548 11.8532C25.8548 12.0403 25.7213 12.2273 25.5341 12.2808C25.5074 12.2808 25.3202 12.3342 24.9995 12.3878C25.0262 13.0292 25.0529 13.9645 25.1065 15.1138C25.9618 14.9535 26.3626 14.606 26.3626 14.606C26.4694 13.6172 26.4428 11.7998 26.3892 10.704L25.8818 10.7574Z" fill="white"/>
<path d="M25.4541 11.8802C25.4541 11.4791 25.4274 11.0784 25.3738 10.6775C25.1067 10.5705 24.8928 10.3301 24.8392 10.0093C24.171 7.09639 22.915 6.4013 22.8883 6.37467L22.5943 6.24109C22.6476 6.69537 22.3538 7.01614 22.0597 7.25666C21.7925 7.44379 21.4718 7.57737 21.151 7.65761C21.445 8.4058 22.2469 10.5439 22.3537 12.4147C24.1177 12.1743 25.4541 11.8802 25.4541 11.8802V11.8802ZM16.5546 6.45469C17.0622 7.14949 17.9442 8.6461 18.1847 10.9713C18.2381 11.399 17.9976 11.773 17.6235 11.9335C17.7838 12.4412 17.8907 12.7353 17.8907 12.7353H18.2917C19.4944 12.7353 20.8039 12.6283 21.953 12.4681C21.8461 10.5706 20.9641 8.29886 20.7236 7.711H20.5366C18.4788 7.68408 16.7418 6.50807 16.3674 6.26756C16.421 6.32111 16.5012 6.37444 16.5546 6.45469Z" fill="white"/>
<path d="M20.8304 13.6438C20.9907 13.6438 21.1778 13.6171 21.365 13.6171C21.3383 13.3499 21.3116 13.1361 21.3116 12.9756C20.3228 13.0825 19.2805 13.1628 18.2916 13.1628H17.8639C17.6768 13.1628 17.5432 13.0558 17.463 12.8687C17.3827 12.5746 17.2758 12.3075 17.1689 12.0134L16.1266 12.1737H15.9931C15.699 12.1737 15.4585 12.04 15.2716 11.8529C15.3249 12.3339 15.3518 12.9487 15.3785 13.7505C15.3785 14.0176 15.3785 14.2851 15.4051 14.5522C16.1802 14.6592 18.8259 14.9263 21.4717 14.7125C21.445 14.472 21.445 14.2581 21.4184 14.0443C21.1512 14.071 20.9106 14.071 20.8571 14.071C20.7502 14.071 20.6433 13.9908 20.6433 13.8571C20.643 13.7505 20.7233 13.6704 20.8302 13.6438L20.8304 13.6438ZM14.5765 18.9885V20.1912C14.5765 20.2179 14.5765 20.2715 14.6032 20.2982H14.6299C16.3939 20.7524 18.131 20.9663 19.788 20.9663C20.4294 20.9663 21.0174 20.9396 21.5519 20.8861C21.5786 20.7524 21.5786 20.592 21.6053 20.4584C21.3914 20.4851 21.2043 20.4851 21.1243 20.4851C21.0174 20.4851 20.9105 20.4048 20.9105 20.2712C20.9105 20.1644 20.9907 20.0574 21.1243 20.0574C21.2846 20.0574 21.4717 20.0307 21.6589 20.0307C21.6856 19.7903 21.6856 19.5498 21.6856 19.2823C20.7503 19.3893 19.895 19.4159 19.1198 19.4159C17.0353 19.4161 15.4854 19.1757 14.5765 18.9885V18.9885ZM22.0601 19.2289C22.0601 19.4694 22.0334 19.7099 22.0334 19.9504C22.1671 19.9237 22.3006 19.8971 22.3542 19.8702C22.4611 19.8168 22.5947 19.8702 22.6482 19.9504C22.7016 20.0574 22.6482 20.1909 22.568 20.2444C22.4344 20.2978 22.2473 20.3514 22.0334 20.3781C22.0334 20.5117 22.0068 20.6721 22.0068 20.8057C23.7708 20.5653 24.7328 20.1109 24.7594 20.1109L24.7861 20.0843C24.8128 20.0576 24.8394 20.004 24.8394 19.9773C24.8394 19.5497 24.8394 19.1489 24.8128 18.7479C23.8239 18.9885 22.9152 19.1487 22.0601 19.2289ZM17.677 21.26C17.2227 21.2066 16.795 21.153 16.3406 21.0728C16.2873 21.2064 16.2071 21.3935 16.2071 21.5805C16.2071 21.7676 16.2604 22.2487 16.3139 22.6493C16.7416 22.7296 17.2226 22.783 17.7572 22.8365C17.7305 22.3555 17.7038 21.9278 17.6503 21.6071C17.6234 21.4738 17.6503 21.3668 17.6769 21.26H17.677ZM16.9286 22.2488C16.7683 22.2488 16.6614 22.1153 16.6614 21.9817C16.6614 21.8481 16.795 21.7145 16.9286 21.7145C17.0888 21.7145 17.1957 21.848 17.1957 21.9817C17.1959 22.1153 17.089 22.2488 16.9286 22.2488Z" fill="white"/>
</svg>
